<?xml version="1.0" encoding="iso-8859-1"?>
<!-- Uploaded to: SVG Repo, www.svgrepo.com, Generator: SVG Repo Mixer Tools -->
<!DOCTYPE svg PUBLIC "-//W3C//DTD SVG 1.1//EN" "http://www.w3.org/Graphics/SVG/1.1/DTD/svg11.dtd">
<svg fill="#000000" version="1.1" id="Capa_1" xmlns="http://www.w3.org/2000/svg" xmlns:xlink="http://www.w3.org/1999/xlink" 
	 width="800px" height="800px" viewBox="0 0 47 47" xml:space="preserve">
<g>
	<path d="M37.6,0H9.4C4.209,0,0,4.209,0,9.4v28.2C0,42.791,4.209,47,9.4,47h28.2c5.191,0,9.4-4.209,9.4-9.4V9.4
		C47,4.209,42.791,0,37.6,0z M38.143,19.139L23.602,33.678c-0.803,0.805-1.854,1.205-2.906,1.205c-1.051,0-2.104-0.4-2.907-1.205
		l-8.933-8.932c-1.604-1.604-1.604-4.208,0-5.814c1.607-1.606,4.209-1.606,5.816,0l6.023,6.023l11.633-11.633
		c1.605-1.605,4.209-1.605,5.814,0C39.75,14.928,39.75,17.532,38.143,19.139z"/>
</g>
</svg>